<svg width="430" height="64" viewBox="0 0 430 64" fill="none" xmlns="http://www.w3.org/2000/svg">
<g clip-path="url(#clip0_128_5123)">
<path d="M0.390625 61.874V3.92969H7.54297V61.8568H0.390625V61.874Z" fill="#B46B74"/>
<path d="M59.5772 63.5348C53.9278 63.5348 48.9178 62.3255 44.495 59.9068C40.0896 57.4881 36.5998 53.9984 34.0602 49.472C31.5206 44.9456 30.2422 39.6246 30.2422 33.4915V32.2995C30.2422 26.0973 31.5206 20.759 34.0602 16.2672C36.5998 11.7753 40.0723 8.3201 44.495 5.90144C48.9005 3.48277 53.9278 2.27344 59.5772 2.27344C65.2265 2.27344 69.8565 3.32729 73.7091 5.43498C77.5617 7.54268 80.585 10.2896 82.7618 13.6584C84.9386 17.0446 86.3207 20.5862 86.8735 24.3179L79.8421 25.7518C79.4448 22.6593 78.4428 19.8088 76.8533 17.2346C75.2639 14.6605 73.0353 12.5873 70.1847 11.0325C67.3169 9.47761 63.7925 8.70018 59.5772 8.70018C55.3618 8.70018 51.5956 9.66765 48.2613 11.6199C44.9269 13.5721 42.2837 16.3017 40.3315 19.8433C38.3793 23.3849 37.4118 27.5658 37.4118 32.4204V33.3706C37.4118 38.2252 38.3793 42.406 40.3315 45.9477C42.2837 49.4893 44.9269 52.2189 48.2613 54.1711C51.5956 56.1233 55.379 57.0908 59.5772 57.0908C65.9348 57.0908 70.7894 55.4496 74.1237 52.1498C77.458 48.8501 79.5312 44.8247 80.3259 40.0565L87.3573 41.4904C86.6489 45.222 85.1459 48.7809 82.8827 52.1671C80.6196 55.5532 77.5617 58.2828 73.7091 60.3905C69.8565 62.4982 65.1401 63.5521 59.5772 63.5521V63.5348Z" fill="#B46B74"/>
<path d="M136.044 63.5332C130.17 63.5332 125.022 62.2893 120.599 59.7842C116.194 57.2792 112.773 53.7894 110.355 49.2976C107.936 44.8058 106.727 39.5884 106.727 33.6281V32.1942C106.727 26.2339 107.936 21.0165 110.355 16.5246C112.773 12.0328 116.194 8.54304 120.599 6.038C125.005 3.53295 130.153 2.28906 136.044 2.28906C141.935 2.28906 147.066 3.53295 151.489 6.038C155.895 8.54304 159.315 12.0328 161.734 16.5246C164.153 21.0165 165.362 26.2339 165.362 32.1942V33.6281C165.362 39.5884 164.153 44.8058 161.734 49.2976C159.315 53.7894 155.895 57.2792 151.489 59.7842C147.084 62.2893 141.935 63.5332 136.044 63.5332ZM136.044 57.0891C142.886 57.0891 148.276 54.9296 152.249 50.5933C156.223 46.257 158.21 40.5213 158.21 33.3689V32.4187C158.21 25.2664 156.223 19.5307 152.249 15.1944C148.276 10.8581 142.868 8.69853 136.044 8.69853C129.22 8.69853 123.899 10.8581 119.891 15.1944C115.883 19.5307 113.879 25.2664 113.879 32.4187V33.3689C113.879 40.5213 115.883 46.257 119.891 50.5933C123.899 54.9296 129.289 57.0891 136.044 57.0891Z" fill="#B46B74"/>
<path d="M273.352 61.874V3.92969H280.504V61.8568H273.352V61.874Z" fill="#B46B74"/>
<path d="M306.68 61.874V52.0957L345.655 11.5658V10.3737H307.872V3.92969H352.928V13.708L313.832 54.238V55.43H353.878V61.874H306.68Z" fill="#B46B74"/>
<path d="M403.044 63.5348C397.084 63.5348 391.901 62.2909 387.495 59.7859C383.09 57.2808 379.652 53.7565 377.181 49.2301C374.711 44.7038 373.484 39.5036 373.484 33.6125V32.1785C373.484 26.2182 374.711 21.0008 377.181 16.509C379.652 12.0172 383.038 8.52742 387.374 6.02237C391.711 3.51732 396.652 2.27344 402.215 2.27344C407.778 2.27344 412.408 3.41367 416.571 5.67685C420.752 7.94003 424.017 11.2052 426.401 15.4552C428.785 19.7051 429.978 24.767 429.978 30.6582V34.4763H380.619C380.861 41.715 383.073 47.2952 387.236 51.2169C391.417 55.1559 396.669 57.1253 403.027 57.1253C408.434 57.1253 412.615 55.8987 415.604 53.4282C418.575 50.975 420.873 47.9517 422.462 44.3755L428.906 47.2434C427.714 49.8693 426.056 52.4262 423.965 54.9313C421.858 57.4363 419.145 59.5095 415.794 61.1334C412.459 62.7574 408.21 63.5694 403.044 63.5694V63.5348ZM380.758 28.2568H422.722C422.411 21.9856 420.372 17.1482 416.64 13.7794C412.909 10.4105 408.089 8.71746 402.215 8.71746C396.341 8.71746 391.607 10.4105 387.789 13.7794C383.971 17.1655 381.621 21.9856 380.758 28.2568Z" fill="#B46B74"/>
<path d="M242.726 61.7899V35.029C242.726 35.029 243.607 22.2447 230.149 10.7733C225.796 7.05889 220.958 5.19306 216.415 4.38108C207.707 2.80894 198.776 5.41765 191.969 11.0497L192.211 47.3815L200.814 52.0115L206.101 45.8439L210.955 38.5707C210.955 38.5707 212.666 40.6438 212.717 47.3988L212.666 61.7899" stroke="#B46B74" stroke-width="6.91048" stroke-miterlimit="10"/>
</g>
<defs>
<clipPath id="clip0_128_5123">
<rect width="429.607" height="63.0754" fill="white" transform="translate(0.390625 0.460938)"/>
</clipPath>
</defs>
</svg>
